<?xml version="1.0" standalone="no"?>
<!DOCTYPE svg PUBLIC "-//W3C//DTD SVG 20010904//EN"
 "http://www.w3.org/TR/2001/REC-SVG-20010904/DTD/svg10.dtd">
<svg version="1.0" xmlns="http://www.w3.org/2000/svg"
 width="500.000000pt" height="500.000000pt" viewBox="0 0 500.000000 500.000000"
 preserveAspectRatio="xMidYMid meet">

<g transform="translate(0.000000,500.000000) scale(0.100000,-0.100000)"
fill="#000000" stroke="none">
<path d="M1022 3065 c-81 -18 -122 -44 -152 -97 -24 -41 -25 -54 -30 -243 -6
-224 -10 -238 -74 -269 -20 -9 -59 -20 -86 -23 l-50 -6 0 -97 0 -98 48 -7 c63
-9 102 -27 132 -59 25 -27 25 -31 30 -229 5 -192 7 -204 30 -246 40 -72 140
-111 281 -111 l59 0 0 95 c0 95 0 95 -25 95 -39 0 -92 26 -106 52 -9 15 -15
85 -19 208 -4 153 -8 189 -22 211 -22 31 -81 65 -130 74 -49 9 -48 21 0 29 45
7 96 39 126 79 19 26 22 46 26 210 4 121 10 190 19 205 14 26 67 52 106 52 25
0 25 0 25 95 l0 95 -62 -1 c-35 0 -91 -7 -126 -14z"/>
<path d="M3790 2986 l0 -96 25 0 c39 0 92 -26 106 -52 9 -15 15 -82 19 -205 4
-164 7 -184 26 -210 30 -40 81 -72 126 -79 48 -8 49 -20 1 -29 -50 -9 -82 -27
-118 -65 l-30 -31 -5 -187 c-4 -123 -10 -195 -18 -209 -16 -29 -62 -53 -102
-53 l-30 0 0 -96 0 -97 93 6 c143 9 210 37 251 107 19 31 22 57 26 240 6 228
10 243 72 273 18 9 57 19 86 23 l52 7 0 97 0 97 -56 7 c-62 7 -99 23 -129 56
-18 20 -20 40 -25 234 -4 190 -7 215 -26 246 -40 70 -106 97 -251 107 l-93 6
0 -97z"/>
<path d="M3120 2899 c-74 -34 -180 -79 -235 -100 -109 -44 -220 -64 -245 -45
-12 9 -13 8 -3 -4 6 -8 11 -19 11 -25 0 -20 76 -37 153 -33 68 4 85 10 165 53
49 27 137 79 196 117 l107 69 62 -15 c34 -9 83 -25 108 -36 l46 -20 -25 20
c-43 35 -142 80 -174 80 -17 0 -92 -28 -166 -61z"/>
<path d="M1624 2920 c-34 -16 -67 -37 -74 -46 -12 -14 -10 -14 26 0 21 9 65
22 97 30 l58 15 97 -63 c247 -160 322 -190 435 -176 59 7 123 29 88 30 -11 0
-10 5 5 23 10 12 13 17 6 12 -20 -18 -141 -1 -227 33 -44 17 -147 61 -230 98
-82 37 -166 68 -185 71 -25 2 -53 -6 -96 -27z"/>
<path d="M2200 2283 c-285 -45 -607 -148 -645 -206 -23 -36 -42 -111 -50 -205
-6 -66 -4 -81 10 -95 23 -24 48 -8 75 47 55 115 235 172 570 182 195 6 247 18
280 64 38 53 19 156 -38 200 -20 16 -39 20 -101 19 -42 -1 -87 -4 -101 -6z"/>
<path d="M2588 2263 c-37 -41 -50 -70 -50 -118 -2 -98 60 -134 232 -135 344
-1 557 -71 646 -212 25 -40 53 -49 73 -24 21 25 -6 222 -40 288 -23 45 -40 55
-195 108 -193 67 -448 120 -573 120 -60 0 -70 -3 -93 -27z"/>
</g>
</svg>
